<?xml version="1.0" encoding="utf-8"?>
<!-- Generator: Adobe Illustrator 18.1.1, SVG Export Plug-In . SVG Version: 6.00 Build 0)  -->
<svg version="1.1" id="Layer_2" xmlns="http://www.w3.org/2000/svg" xmlns:xlink="http://www.w3.org/1999/xlink" x="0px" y="0px"
	 viewBox="0 0 80 80" enable-background="new 0 0 80 80" xml:space="preserve">
<path fill="#AE7A5A" d="M20.1,21.3c0,0,4.4-1.7,6.2-1.7c0.7,0,0.2,14.9,0.2,14.9s0.6,0.7,0.2,1.4c-0.3,0.6-0.7,2-1.5,3
	c-0.9,1.1-3.7,2.8-3.7,2.8C20.4,41.5,20.1,21.3,20.1,21.3z"/>
<path fill="#210E0B" d="M59.6,43.3c1.1,1.1-9.6,2.4-17.4,1.3c-3.4-0.5-21.3-2.3-20.6-2.9c1.4-1.2,3.8-4.6,4.7-6.5
	c0.4-0.8,0.4-0.8,0.6-1c1.1-0.6,8,0.9,15.2,0.9c3.7,0,10.4-1.6,13.1-0.6C57.6,35.5,59.6,43.3,59.6,43.3z"/>
<polygon fill="#050707" points="57.7,22.6 56.5,26.9 55.6,35.4 55.7,37.6 59.7,43.6 59.5,26.1 "/>
<path fill="#472011" d="M55.7,37.6l-29.4-2.2c-0.6,0-1.3-15.8,0.1-15.8l31.3,2.9L55.7,37.6z"/>
<polygon fill="#D6B1A5" points="14.2,51.7 21.6,41.7 20.1,21.3 13.6,28.7 "/>
<polygon fill="#210E0B" points="62.6,53.1 62.6,33.7 59.5,26.1 59.6,43.3 "/>
<polygon fill="#431C16" points="62.6,53.1 14.2,51.7 21.6,41.7 59.6,43.3 "/>
</svg>
