<?xml version="1.0" encoding="utf-8"?>
<!-- Generator: Adobe Illustrator 18.1.1, SVG Export Plug-In . SVG Version: 6.00 Build 0)  -->
<svg version="1.1" id="Layer_1" xmlns="http://www.w3.org/2000/svg" xmlns:xlink="http://www.w3.org/1999/xlink" x="0px" y="0px"
	 viewBox="0 0 80 80" enable-background="new 0 0 80 80" xml:space="preserve">
<path fill="#009444" d="M65.9,47.1c4,19.6,0.6,16.9-26.9,16.9c-25.9,0-30.5,2.6-26.1-16.9c1.9-8.7,3.3-16.5,6.7-22.7
	c4.4-8.1,2.8-13.5,19.9-13.5c17,0,14.3,5.4,18.6,12.7C62,30.1,64,38.1,65.9,47.1z"/>
<path opacity="0.2" fill="#F1F2F2" d="M33.2,16.5c7.6,0-3.4,14.9-3.4,21c0,3.8,10.7,15.7,8,20.5c-1.6,2.9-8.6,1.7-11.5,1.7
	c-4.1,0-10.3-0.4-11-5.3c-0.6-4.3,4-13.1,4-15.9C19.4,32.4,25.6,16.5,33.2,16.5z"/>
</svg>
