<?xml version="1.0" encoding="utf-8"?>
<!-- Generator: Adobe Illustrator 18.1.1, SVG Export Plug-In . SVG Version: 6.00 Build 0)  -->
<svg version="1.1" id="Layer_1" xmlns="http://www.w3.org/2000/svg" xmlns:xlink="http://www.w3.org/1999/xlink" x="0px" y="0px"
	 viewBox="0 0 80 80" enable-background="new 0 0 80 80" xml:space="preserve">
<path fill="#FFFFFF" stroke="#000000" stroke-width="0.5" stroke-miterlimit="10" d="M64.8,38.2c0,5.3,5.6,26.2,3.9,30.5
	c-2.3,5.7-5.9,0.2-10.6-0.3c-4.8-0.5-10.5,2.8-15.2,2.8c-4,0-7.7-4.7-12.1-3.5c-5.5,1.5-9.9,6-12.2,0.8c-2-4.4-2.4-25-2.4-30.4
	c0-16.9,10.9-30.5,24.3-30.5S64.8,21.4,64.8,38.2z"/>
<path d="M23.1,25.5c0,3.4-0.6,7.3,2.4,7.3s6-3.3,6-6.7s1.1-6.7-1.9-6.7C23,19.4,23.1,22.2,23.1,25.5z"/>
<path d="M45.8,25.5c0,3.4,0.6,7.3-2.4,7.3c-3,0-6-3.3-6-6.7s-1.1-6.7,1.9-6.7C46,19.4,45.8,22.2,45.8,25.5z"/>
<path d="M38.8,43.2c0,3.4-2.5,3.9-4.1,3.9c-1.2,0-4.3,0-4.3-3.3c0-3.4,2.1-5.3,4.1-4.8C36.5,39.5,38.8,41.6,38.8,43.2z"/>
</svg>
