<?xml version="1.0" encoding="UTF-8" standalone="no"?>
<!-- Generator: Adobe Illustrator 18.1.1, SVG Export Plug-In . SVG Version: 6.00 Build 0)  -->

<svg
   xmlns:dc="http://purl.org/dc/elements/1.1/"
   xmlns:cc="http://creativecommons.org/ns#"
   xmlns:rdf="http://www.w3.org/1999/02/22-rdf-syntax-ns#"
   xmlns:svg="http://www.w3.org/2000/svg"
   xmlns="http://www.w3.org/2000/svg"
   xmlns:sodipodi="http://sodipodi.sourceforge.net/DTD/sodipodi-0.dtd"
   xmlns:inkscape="http://www.inkscape.org/namespaces/inkscape"
   version="1.1"
   id="Layer_2"
   x="0px"
   y="0px"
   viewBox="0 0 80 80"
   enable-background="new 0 0 80 80"
   xml:space="preserve"
   inkscape:version="0.91 r"
   sodipodi:docname="coco.svg"><metadata
     id="metadata21"><rdf:RDF><cc:Work
         rdf:about=""><dc:format>image/svg+xml</dc:format><dc:type
           rdf:resource="http://purl.org/dc/dcmitype/StillImage" /></cc:Work></rdf:RDF></metadata><defs
     id="defs19" /><sodipodi:namedview
     pagecolor="#ffffff"
     bordercolor="#666666"
     borderopacity="1"
     objecttolerance="10"
     gridtolerance="10"
     guidetolerance="10"
     inkscape:pageopacity="0"
     inkscape:pageshadow="2"
     inkscape:window-width="1920"
     inkscape:window-height="1004"
     id="namedview17"
     showgrid="false"
     inkscape:zoom="5.9"
     inkscape:cx="35.837173"
     inkscape:cy="48.390276"
     inkscape:window-x="1920"
     inkscape:window-y="25"
     inkscape:window-maximized="1"
     inkscape:current-layer="Layer_2" /><g
     id="g4149"
     transform="matrix(1.450291,0,0,1.450291,-14.952694,-14.113452)"><path
       id="path3"
       d="m 20.1,21.3 c 0,0 4.4,-1.7 6.2,-1.7 0.7,0 0.2,14.9 0.2,14.9 0,0 0.6,0.7 0.2,1.4 -0.3,0.6 -0.7,2 -1.5,3 -0.9,1.1 -3.7,2.8 -3.7,2.8 -1.1,-0.2 -1.4,-20.4 -1.4,-20.4 z"
       inkscape:connector-curvature="0"
       style="fill:#ae7a5a" /><path
       id="path5"
       d="m 59.6,43.3 c 1.1,1.1 -9.6,2.4 -17.4,1.3 -3.4,-0.5 -21.3,-2.3 -20.6,-2.9 1.4,-1.2 3.8,-4.6 4.7,-6.5 0.4,-0.8 0.4,-0.8 0.6,-1 1.1,-0.6 8,0.9 15.2,0.9 3.7,0 10.4,-1.6 13.1,-0.6 2.4,1 4.4,8.8 4.4,8.8 z"
       inkscape:connector-curvature="0"
       style="fill:#210e0b" /><polygon
       id="polygon7"
       points="59.5,26.1 57.7,22.6 56.5,26.9 55.6,35.4 55.7,37.6 59.7,43.6 "
       style="fill:#050707" /><path
       id="path9"
       d="M 55.7,37.6 26.3,35.4 c -0.6,0 -1.3,-15.8 0.1,-15.8 l 31.3,2.9 -2,15.1 z"
       inkscape:connector-curvature="0"
       style="fill:#472011" /><polygon
       id="polygon11"
       points="13.6,28.7 14.2,51.7 21.6,41.7 20.1,21.3 "
       style="fill:#d6b1a5" /><polygon
       id="polygon13"
       points="59.6,43.3 62.6,53.1 62.6,33.7 59.5,26.1 "
       style="fill:#210e0b" /><polygon
       id="polygon15"
       points="59.6,43.3 62.6,53.1 14.2,51.7 21.6,41.7 "
       style="fill:#431c16" /></g></svg>