<?xml version="1.0" encoding="UTF-8" standalone="no"?>
<!-- Generator: Adobe Illustrator 18.1.1, SVG Export Plug-In . SVG Version: 6.00 Build 0)  -->

<svg
   xmlns:dc="http://purl.org/dc/elements/1.1/"
   xmlns:cc="http://creativecommons.org/ns#"
   xmlns:rdf="http://www.w3.org/1999/02/22-rdf-syntax-ns#"
   xmlns:svg="http://www.w3.org/2000/svg"
   xmlns="http://www.w3.org/2000/svg"
   xmlns:sodipodi="http://sodipodi.sourceforge.net/DTD/sodipodi-0.dtd"
   xmlns:inkscape="http://www.inkscape.org/namespaces/inkscape"
   version="1.1"
   id="Layer_1"
   x="0px"
   y="0px"
   viewBox="0 0 80 80"
   enable-background="new 0 0 80 80"
   xml:space="preserve"
   inkscape:version="0.91 r"
   sodipodi:docname="Shit.svg"><metadata
     id="metadata11"><rdf:RDF><cc:Work
         rdf:about=""><dc:format>image/svg+xml</dc:format><dc:type
           rdf:resource="http://purl.org/dc/dcmitype/StillImage" /></cc:Work></rdf:RDF></metadata><defs
     id="defs9" /><sodipodi:namedview
     pagecolor="#ffffff"
     bordercolor="#666666"
     borderopacity="1"
     objecttolerance="10"
     gridtolerance="10"
     guidetolerance="10"
     inkscape:pageopacity="0"
     inkscape:pageshadow="2"
     inkscape:window-width="1920"
     inkscape:window-height="1004"
     id="namedview7"
     showgrid="false"
     inkscape:zoom="1"
     inkscape:cx="29.11227"
     inkscape:cy="41.785697"
     inkscape:window-x="1920"
     inkscape:window-y="25"
     inkscape:window-maximized="1"
     inkscape:current-layer="Layer_1" /><g
     id="g3"
     transform="matrix(1.7689573,0,0,1.7689573,-31.339285,-28.242468)"><path
       d="m 31.4,36.8 c -0.1,-0.3 -0.2,-0.5 -0.3,-0.7 -0.3,-0.9 -0.2,-1.7 0.1,-2.6 0.3,-0.6 0.5,-1.3 0.9,-1.8 0.3,-0.5 0.8,-1 1.4,-1.4 0.5,-0.3 0.9,-0.5 1.4,-0.7 0.1,0 0.2,-0.2 0.2,-0.3 0,-0.5 0,-1.1 0.1,-1.6 0.2,-0.8 0.6,-1.4 0.7,-1.6 0.4,-0.8 0.2,-0.4 0.7,-1 0.3,-0.4 0.3,-0.5 0.1,-0.9 -0.2,-0.4 -0.4,-0.8 -0.5,-1.2 -0.1,-0.4 0.2,-0.9 0.6,-1 0.6,-0.2 1.2,-0.2 1.8,-0.1 0.1,0 0.2,0 0.3,0.1 0.6,0.3 1.2,0.6 1.8,0.9 0.8,0.5 1.5,1 2.2,1.6 0.7,0.5 1.3,1 1.9,1.6 0.4,0.4 0.7,0.8 1,1.3 0.3,0.4 0.4,0.8 0.6,1.2 0.3,0.7 0.3,1.5 0.3,2.2 0,0.3 0.1,0.4 0.4,0.5 0.9,0.3 1.9,0.6 2.6,1.4 0.3,0.4 0.7,0.8 0.9,1.3 0.1,0.4 0.2,0.8 0.2,1.3 0,0.3 -0.1,0.6 -0.1,0.9 0,0.1 0.1,0.3 0.1,0.4 0.1,0.1 0.2,0.2 0.3,0.2 0.3,0.2 0.7,0.4 1,0.7 1.2,1.1 2.1,2.4 2.2,4.1 0,0.5 -0.1,1.1 -0.2,1.6 0,0.1 0,0.2 -0.1,0.3 -0.1,0.3 0.1,0.4 0.4,0.6 0.8,0.3 1.6,0.8 2.2,1.5 0.5,0.7 1,1.4 1.2,2.2 0.1,0.5 0.1,1 0.1,1.5 0,0.5 -0.1,1 -0.1,1.4 0,0.3 -0.2,0.5 -0.3,0.8 -0.6,1.2 -1.6,1.8 -2.9,2.1 -1.2,0.2 -2.3,0.5 -3.4,0.7 -1,0.2 -2,0.3 -3,0.3 -1.2,0 -2.4,-0.1 -3.5,-0.1 -1.1,-0.1 -2.2,-0.2 -3.4,-0.4 -1,-0.1 -2.1,-0.2 -3.1,-0.3 -0.6,-0.1 -1.3,-0.2 -1.9,-0.3 -0.7,-0.2 -1.4,0.1 -2.1,0.2 -0.4,0.1 -0.8,0.2 -1.1,0.3 -0.8,0.2 -1.5,0.5 -2.3,0.6 -0.9,0.2 -1.8,0.2 -2.6,-0.1 -0.2,-0.1 -0.4,-0.1 -0.7,-0.1 -1,-0.2 -1.8,-0.6 -2.5,-1.3 -0.8,-0.8 -1.2,-1.8 -1.3,-2.9 0,-0.5 -0.2,-1 0,-1.5 0.2,-0.8 0.4,-1.7 0.9,-2.4 0.4,-0.5 0.7,-0.9 1.2,-1.3 0.6,-0.5 1.1,-0.8 1.8,-1 0.1,0 0.2,-0.2 0.2,-0.3 0,-0.7 -0.1,-1.4 -0.1,-2.2 0,-0.9 0.3,-1.8 0.9,-2.6 0.5,-0.6 0.9,-1.2 1.6,-1.6 0.3,-0.1 0.7,-0.3 1.2,-0.5 z"
       id="path5"
       inkscape:connector-curvature="0"
       style="fill:#603913" /></g><path
     style="fill:#603913;fill-rule:evenodd;stroke:#794818;stroke-width:1px;stroke-linecap:butt;stroke-linejoin:miter;stroke-opacity:1;fill-opacity:1"
     d="m 24.08957,36.97435 c 0,0 15.340622,2.996215 34.156853,-0.479394"
     id="path4838"
     inkscape:connector-curvature="0" /><path
     style="fill:#603913;fill-opacity:1;fill-rule:evenodd;stroke:#794818;stroke-width:1px;stroke-linecap:butt;stroke-linejoin:miter;stroke-opacity:1"
     d="m 17.870177,49.243102 c 0,0 19.762286,5.948236 46.248828,0.01573"
     id="path4840"
     inkscape:connector-curvature="0"
     sodipodi:nodetypes="cc" /><path
     style="fill:#603913;fill-rule:evenodd;stroke:#794818;stroke-width:1px;stroke-linecap:butt;stroke-linejoin:miter;stroke-opacity:1;fill-opacity:1"
     d="m 30.621319,24.090625 c 0,0 5.453112,4.554247 20.673885,2.816442"
     id="path4842"
     inkscape:connector-curvature="0" /></svg>